<svg width="1024" height="1024" viewBox="0 0 1024 1024" fill="none" xmlns="http://www.w3.org/2000/svg">
<g filter="url(#filter0_i_2399_95)">
<rect x="100" y="100" width="824" height="824" rx="186" fill="url(#paint0_linear_2399_95)"/>
</g>
<g filter="url(#filter1_d_2399_95)">
<path d="M587.5 558.477C634.933 592.944 663 648.035 663 706.669V725.583C663 746.432 646.099 763.333 625.25 763.333H398.75C377.901 763.333 361 746.432 361 725.583V709.503C361 649.089 389.92 592.325 438.793 556.81L585.222 450.405C634.086 414.897 663 358.145 663 297.743C663 276.898 646.102 260 625.257 260H398.743C377.898 260 361 276.898 361 297.742V300.558C361 359.192 389.067 414.282 436.5 448.75" stroke="url(#paint1_linear_2399_95)" stroke-width="54" stroke-linecap="round" stroke-linejoin="round"/>
</g>
<defs>
<filter id="filter0_i_2399_95" x="100" y="100" width="824" height="824" filterUnits="userSpaceOnUse" color-interpolation-filters="sRGB">
<feFlood flood-opacity="0" result="BackgroundImageFix"/>
<feBlend mode="normal" in="SourceGraphic" in2="BackgroundImageFix" result="shape"/>
<feColorMatrix in="SourceAlpha" type="matrix" values="0 0 0 0 0 0 0 0 0 0 0 0 0 0 0 0 0 0 127 0" result="hardAlpha"/>
<feOffset/>
<feGaussianBlur stdDeviation="7.5"/>
<feComposite in2="hardAlpha" operator="arithmetic" k2="-1" k3="1"/>
<feColorMatrix type="matrix" values="0 0 0 0 1 0 0 0 0 1 0 0 0 0 1 0 0 0 0.35 0"/>
<feBlend mode="normal" in2="shape" result="effect1_innerShadow_2399_95"/>
</filter>
<filter id="filter1_d_2399_95" x="180" y="190" width="664" height="664" filterUnits="userSpaceOnUse" color-interpolation-filters="sRGB">
<feFlood flood-opacity="0" result="BackgroundImageFix"/>
<feColorMatrix in="SourceAlpha" type="matrix" values="0 0 0 0 0 0 0 0 0 0 0 0 0 0 0 0 0 0 127 0" result="hardAlpha"/>
<feOffset dy="10"/>
<feGaussianBlur stdDeviation="15"/>
<feComposite in2="hardAlpha" operator="out"/>
<feColorMatrix type="matrix" values="0 0 0 0 0 0 0 0 0 0 0 0 0 0 0 0 0 0 0.12 0"/>
<feBlend mode="normal" in2="BackgroundImageFix" result="effect1_dropShadow_2399_95"/>
<feBlend mode="normal" in="SourceGraphic" in2="effect1_dropShadow_2399_95" result="shape"/>
</filter>
<linearGradient id="paint0_linear_2399_95" x1="512" y1="100" x2="512" y2="924" gradientUnits="userSpaceOnUse">
<stop stop-color="#2AA0FE"/>
<stop offset="1" stop-color="#0955FE"/>
</linearGradient>
<linearGradient id="paint1_linear_2399_95" x1="512" y1="260" x2="512" y2="763.333" gradientUnits="userSpaceOnUse">
<stop stop-color="white"/>
<stop offset="1" stop-color="white" stop-opacity="0.75"/>
</linearGradient>
</defs>
</svg>
