<svg width="1024" height="1024" viewBox="0 0 1024 1024" fill="none" xmlns="http://www.w3.org/2000/svg">
<g filter="url(#filter0_i_2429_4)">
<rect x="0" y="0" width="1024" height="1024" rx="186" fill="url(#paint0_linear_2429_4)"/>
</g>
<g filter="url(#filter1_d_2429_4)">
<path d="M725.894 335.436C747.547 387.18 653.202 504.87 529.521 576.58C605.329 549.125 656.325 542.862 674.884 587.213C701.488 650.789 552.975 813.923 390.094 869L423.989 684.734C367.28 703.268 328.236 703.479 310.637 661.42C289.227 610.258 358.725 504.078 456.038 442.386C372.744 473.968 316.751 483.735 297.106 436.787C270.501 373.211 419.014 210.077 581.895 155L548.41 337.041C641.942 299.971 704.824 285.083 725.894 335.436Z" fill="url(#paint1_linear_2429_4)" shape-rendering="crispEdges"/>
</g>
<defs>
<filter id="filter0_i_2429_4" x="15" y="15" width="994" height="994" filterUnits="userSpaceOnUse" color-interpolation-filters="sRGB">
<feFlood flood-opacity="0" result="BackgroundImageFix"/>
<feBlend mode="normal" in="SourceGraphic" in2="BackgroundImageFix" result="shape"/>
<feColorMatrix in="SourceAlpha" type="matrix" values="0 0 0 0 0 0 0 0 0 0 0 0 0 0 0 0 0 0 127 0" result="hardAlpha"/>
<feOffset/>
<feGaussianBlur stdDeviation="7.5"/>
<feComposite in2="hardAlpha" operator="arithmetic" k2="-1" k3="1"/>
<feColorMatrix type="matrix" values="0 0 0 0 1 0 0 0 0 1 0 0 0 0 1 0 0 0 0.35 0"/>
<feBlend mode="normal" in2="shape" result="effect1_innerShadow_2429_4"/>
</filter>
<filter id="filter1_d_2429_4" x="264" y="135" width="495" height="774" filterUnits="userSpaceOnUse" color-interpolation-filters="sRGB">
<feFlood flood-opacity="0" result="BackgroundImageFix"/>
<feColorMatrix in="SourceAlpha" type="matrix" values="0 0 0 0 0 0 0 0 0 0 0 0 0 0 0 0 0 0 127 0" result="hardAlpha"/>
<feOffset dy="10"/>
<feGaussianBlur stdDeviation="15"/>
<feComposite in2="hardAlpha" operator="out"/>
<feColorMatrix type="matrix" values="0 0 0 0 0 0 0 0 0 0 0 0 0 0 0 0 0 0 0.12 0"/>
<feBlend mode="normal" in2="BackgroundImageFix" result="effect1_dropShadow_2429_4"/>
<feBlend mode="normal" in="SourceGraphic" in2="effect1_dropShadow_2429_4" result="shape"/>
</filter>
<linearGradient id="paint0_linear_2429_4" x1="512" y1="15" x2="512" y2="1009" gradientUnits="userSpaceOnUse">
<stop stop-color="#2AA0FE"/>
<stop offset="1" stop-color="#0955FE"/>
</linearGradient>
<linearGradient id="paint1_linear_2429_4" x1="511.5" y1="155" x2="511.5" y2="869" gradientUnits="userSpaceOnUse">
<stop stop-color="white"/>
<stop offset="1" stop-color="white" stop-opacity="0.75"/>
</linearGradient>
</defs>
</svg>
